<?xml version="1.0" encoding="utf-8"?>
<!-- Generator: Adobe Illustrator 27.4.1, SVG Export Plug-In . SVG Version: 6.00 Build 0)  -->
<svg version="1.1" id="Layer_1" xmlns="http://www.w3.org/2000/svg" xmlns:xlink="http://www.w3.org/1999/xlink" x="0px" y="0px"
	 viewBox="0 0 5577 973" style="enable-background:new 0 0 5577 973;" xml:space="preserve">
<style type="text/css">
	.st0{fill:#FFFFFF;}
</style>
<g>
	<g>
		<path class="st0" d="M447.49,477.41h-36.01L303.57,185.8L198.74,477.41h-36.12L0.49,8.73h91.33l92.76,278.99L284.69,8.73h38.42
			l100.44,278.99L515.99,8.73h91.33L447.49,477.41z"/>
	</g>
	<g>
		<path class="st0" d="M906.45,235.96c0-65.84,19.32-121.55,57.85-167.1s90.01-68.31,154.56-68.31
			c71.02,0,125.25,20.61,162.79,61.86c37.54,41.22,56.31,99.07,56.31,173.55s-19.59,133.62-58.84,177.39
			c-39.19,43.74-94.84,65.64-167.02,65.64c-66.3,0-117.18-21.68-152.53-65.04C924.18,370.63,906.45,311.3,906.45,235.96z
			 M997.51,235.96c0,54.09,9.77,95.94,29.31,125.64c19.59,29.64,48.03,44.49,85.29,44.49c43.85,0,77.23-14.52,100.28-43.55
			c23.05-29.04,34.58-71.22,34.58-126.57c0-108.35-42.7-162.52-128.11-162.52c-39.08,0-69.1,14.68-90.01,44.02
			C1007.94,146.83,997.51,186.32,997.51,235.96z"/>
	</g>
	<g>
		<path class="st0" d="M1662.47,235.96c0-65.84,19.21-121.55,57.8-167.1c38.53-45.56,90.07-68.31,154.56-68.31
			c71.02,0,125.31,20.61,162.85,61.86c37.54,41.22,56.31,99.07,56.31,173.55s-19.65,133.62-58.84,177.39
			C1995.91,457.1,1940.2,479,1868.07,479c-66.3,0-117.13-21.68-152.53-65.04C1680.14,370.63,1662.47,311.3,1662.47,235.96z
			 M1753.47,235.96c0,54.09,9.77,95.94,29.31,125.64c19.54,29.64,47.97,44.49,85.29,44.49c43.8,0,77.28-14.52,100.33-43.55
			c23-29.04,34.52-71.22,34.52-126.57c0-108.35-42.7-162.52-128.11-162.52c-39.13,0-69.1,14.68-90.01,44.02
			C1763.9,146.83,1753.47,186.32,1753.47,235.96z"/>
	</g>
	<g>
		<path class="st0" d="M2551.53,471.1h-109.55V9.06c69.93-2.31,113.84-3.46,131.84-3.46c71.9,0,128.98,19.7,171.08,59.17
			c42.15,39.44,63.17,91.77,63.17,157C2808.07,388,2722.56,471.1,2551.53,471.1z M2529.68,80.69v315.6
			c14.16,1.26,29.42,1.92,45.78,1.92c44.35,0,78.98-15.07,104.07-45.14c25.03-30.08,37.54-72.18,37.54-126.24
			c0-98.88-49.07-148.33-147.32-148.33C2560.31,78.49,2546.92,79.23,2529.68,80.69z"/>
	</g>
	<g>
		<path class="st0" d="M3132.45,445.52l32.38-73.52c34.58,22.72,68.66,34.08,102.14,34.08c51.43,0,77.23-16.82,77.23-50.5
			c0-15.78-6.09-30.82-18.22-45.14c-12.13-14.3-37.1-30.33-74.98-48.11s-63.45-32.41-76.57-43.88
			c-13.12-11.47-23.22-25.08-30.35-40.86c-7.03-15.78-10.59-33.23-10.59-52.39c0-35.76,14-65.43,41.99-89s63.89-35.35,107.69-35.35
			c57.08,0,99.02,9.99,125.75,30l-26.62,70.69c-30.85-20.64-63.28-30.96-97.48-30.96c-20.2,0-35.9,5.02-46.98,15.01
			c-11.14,9.99-16.69,22.97-16.69,38.97c0,26.51,31.34,54.06,94.08,82.69c33.04,15.15,56.86,29.09,71.46,41.82
			c14.6,12.73,25.69,27.55,33.37,44.49c7.63,16.93,11.42,35.81,11.42,56.67c0,37.43-15.81,68.25-47.31,92.46
			c-31.61,24.21-73.88,36.31-126.95,36.31C3211.16,479,3169.56,467.83,3132.45,445.52z"/>
	</g>
	<g>
		<path class="st0" d="M3867.17,301.01V471.1h-87.71V9.06c58.45-2.31,92.65-3.46,102.53-3.46c77.94,0,135.02,11.2,171.03,33.59
			c36.12,22.42,54.12,57.38,54.12,104.94c0,106.04-66.74,159.06-200.23,159.06C3897.03,303.2,3883.75,302.46,3867.17,301.01z
			 M3867.17,80.08v148c14.82,1.48,26.46,2.22,35.02,2.22c40.01,0,69.21-6.28,87.65-18.8c18.39-12.51,27.61-32.88,27.61-61.06
			c0-47.97-41.22-71.96-123.72-71.96C3884.51,78.49,3875.68,79.01,3867.17,80.08z"/>
	</g>
	<g>
		<path class="st0" d="M4431.52,235.96c0-65.84,19.21-121.55,57.8-167.1c38.53-45.56,90.07-68.31,154.56-68.31
			c71.02,0,125.31,20.61,162.85,61.86c37.54,41.22,56.31,99.07,56.31,173.55s-19.65,133.62-58.84,177.39
			c-39.24,43.74-94.95,65.64-167.08,65.64c-66.3,0-117.13-21.68-152.53-65.04C4449.19,370.63,4431.52,311.3,4431.52,235.96z
			 M4522.52,235.96c0,54.09,9.77,95.94,29.31,125.64c19.54,29.64,47.97,44.49,85.29,44.49c43.8,0,77.28-14.52,100.33-43.55
			c23-29.04,34.52-71.22,34.52-126.57c0-108.35-42.7-162.52-128.11-162.52c-39.13,0-69.1,14.68-90.01,44.02
			C4532.95,146.83,4522.52,186.32,4522.52,235.96z"/>
	</g>
	<g>
		<path class="st0" d="M5411.96,81.65V471.1h-87.65V81.65h-157.09V8.73h408.91v72.92H5411.96z"/>
	</g>
	<g>
		<path class="st0" d="M1481.56,737.44h52.58v94.02c6.86-8.53,14.82-14.79,23.93-18.77c9.11-3.98,20.09-5.98,32.82-5.98
			c25.91,0,45.56,7.03,59.11,21.08c13.56,14.02,20.36,34.52,20.36,61.5c0,26.76-6.81,47.26-20.42,61.5
			c-13.67,14.24-33.15,21.35-58.62,21.35c-13.28,0-24.86-2.2-34.63-6.64c-9.72-4.42-18.17-11.31-25.19-20.66
			c0,2.91-0.11,6.12-0.44,9.58c-0.27,3.49-0.77,8.23-1.48,14.27h-48.03V737.44z M1534.14,897.6c0,14.68,3.4,25.96,10.43,33.87
			c6.92,7.9,16.8,11.86,29.58,11.86c13.34,0,23.38-4.5,30.13-13.5c6.7-9,10.1-22.42,10.1-40.23s-3.4-31.23-10.1-40.29
			c-6.75-9.06-16.8-13.61-30.13-13.61c-12.79,0-22.67,3.98-29.58,11.94c-7.03,7.96-10.43,19.21-10.43,33.81V897.6z"/>
	</g>
	<g>
		<path class="st0" d="M1848.26,810.05h52.97v102.04c0,9.55,2.42,16.69,7.25,21.41c4.78,4.75,12.18,7.11,22.28,7.11
			c11.86,0,21.19-3.38,27.83-10.13c6.64-6.72,10.04-16.14,10.04-28.21v-92.21h52.91v121.79c0,9.66,0.16,17.07,0.44,22.26
			c0.33,5.19,0.71,10.04,1.32,14.57h-48.03c-0.6-3.92-1.04-7.82-1.26-11.69c-0.33-3.87-0.44-7.82-0.44-11.86
			c-5.76,8.56-14,15.2-24.81,19.92c-10.76,4.72-23.05,7.08-36.99,7.08c-20.64,0-36.44-4.47-47.2-13.42
			c-10.87-8.95-16.3-22.04-16.3-39.24V810.05z"/>
	</g>
	<g>
		<path class="st0" d="M2333.96,812.91l-1.76,29.89c-7.74-2.61-15.42-4.56-23.05-5.82c-7.57-1.26-15.48-1.89-23.66-1.89
			c-10.59,0-18.83,1.4-24.53,4.17c-5.71,2.77-8.62,6.67-8.62,11.69c0,4.42,2.03,8.12,6.04,11.09c4.01,2.96,14.05,7.08,30.13,12.29
			c23.49,7.66,39.08,14.87,46.6,21.68c7.52,6.78,11.31,15.56,11.31,26.35c0,15.09-7.57,27.17-22.72,36.23
			c-15.15,9.06-35.4,13.56-60.81,13.56c-9.88,0-19.98-0.63-30.24-1.95c-10.26-1.32-20.25-3.27-30.02-5.9l1.7-32.44
			c9.33,3.92,19.16,6.92,29.42,8.97c10.21,2.06,20.2,3.1,29.8,3.1c11.2,0,19.92-1.48,26.18-4.45c6.2-2.96,9.33-7.14,9.33-12.46
			c0-6.64-10.54-13.39-31.61-20.23c-1.65-0.49-2.85-0.91-3.68-1.21c-22.83-7.44-38.48-14.85-47.04-22.2
			c-8.56-7.33-12.84-16.55-12.84-27.61c0-14.38,7.03-26.13,21.13-35.18c14.05-9.06,32.27-13.56,54.67-13.56
			c9.77,0,19.16,0.47,28.21,1.43C2316.94,809.42,2325.61,810.91,2333.96,812.91z"/>
	</g>
	<g>
		<path class="st0" d="M2526.01,737.44h52.97V828c6.7-7.25,14.93-12.6,24.53-16.08c9.61-3.46,20.91-5.21,33.98-5.21
			c19.65,0,34.91,4.56,45.67,13.67s16.14,22.06,16.14,38.86v109.44h-52.97V866.64c0-9.85-2.47-17.07-7.41-21.57
			c-4.94-4.56-12.73-6.81-23.38-6.81c-11.2,0-20.09,3.38-26.68,10.1c-6.59,6.75-9.88,16.05-9.88,27.94v92.37h-52.97V737.44z"/>
	</g>
	<g>
		<path class="st0" d="M2998.09,852.76l51.65,47.26c4.78-5.43,8.4-12.35,11.03-20.69c2.52-8.34,3.84-17.7,3.84-28.07v-2.55h45.45
			v6.78c0,12.79-2.69,25.22-8.01,37.3c-5.27,12.08-12.9,22.94-22.83,32.6l46.76,43.31h-60.92l-18.99-19.76
			c-10.76,7.63-22.61,13.34-35.68,17.12c-13.06,3.76-27.44,5.65-43.09,5.65c-28.27,0-50.99-5.82-68.22-17.43
			c-17.23-11.64-25.8-27-25.8-46.13c0-12.57,4.45-23.79,13.39-33.65c9-9.85,22.89-18.88,41.71-27
			c-10.54-8.37-18.22-16.41-23.27-24.15c-5.05-7.77-7.57-15.56-7.57-23.41c0-14.38,7.3-26.18,21.84-35.4
			c14.6-9.19,33.65-13.8,57.19-13.8c23.93,0,43.03,4.34,57.14,12.98s21.24,20.34,21.24,35.02c0,10.87-4.72,20.75-14.05,29.67
			C3031.57,837.28,3017.3,845.4,2998.09,852.76z M2958.9,869.83c-10.43,4.23-18.39,9.5-23.77,15.83
			c-5.38,6.34-8.07,13.47-8.07,21.43c0,10.98,4.39,19.76,13.12,26.35c8.73,6.59,20.36,9.88,34.85,9.88c9.22,0,17.67-1.37,25.41-4.14
			s14.44-6.83,20.03-12.16L2958.9,869.83z M2972.51,833.6c12.18-4.56,21.41-9.85,27.66-15.94c6.2-6.09,9.33-12.76,9.33-20.01
			c0-7.03-2.85-12.54-8.62-16.52c-5.76-3.98-13.67-5.96-23.88-5.96c-9.22,0-16.74,2-22.61,6.04c-5.93,4.03-8.84,9.19-8.84,15.56
			c0,5.52,2.36,11.47,6.97,17.78C2957.25,820.92,2963.84,827.23,2972.51,833.6z"/>
	</g>
	<g>
		<path class="st0" d="M3398.76,737.6v27.31c-4.99-0.71-8.78-1.18-11.42-1.43c-2.52-0.25-4.78-0.38-6.64-0.38
			c-10.32,0-17.62,1.81-21.84,5.43c-4.23,3.62-6.31,10.07-6.31,19.32v22.2h40.4v27h-40.4v131.62h-52.58V837.06h-37.87v-27h37.87
			v-25.69c0-17.18,5.05-29.78,15.2-37.71c10.1-7.96,26.07-11.94,47.92-11.94c6.04,0,11.97,0.22,17.95,0.69
			C3387.02,735.85,3392.89,736.59,3398.76,737.6z"/>
	</g>
	<g>
		<path class="st0" d="M3555.96,810.05h52.97v102.04c0,9.55,2.36,16.69,7.19,21.41c4.83,4.75,12.24,7.11,22.28,7.11
			c11.91,0,21.19-3.38,27.88-10.13c6.7-6.72,9.99-16.14,9.99-28.21v-92.21h53.02v121.79c0,9.66,0.11,17.07,0.38,22.26
			s0.71,10.04,1.26,14.57h-47.97c-0.55-3.92-0.99-7.82-1.32-11.69c-0.22-3.87-0.44-7.82-0.44-11.86
			c-5.71,8.56-13.94,15.2-24.7,19.92c-10.76,4.72-23.16,7.08-37.05,7.08c-20.69,0-36.39-4.47-47.26-13.42
			c-10.81-8.95-16.25-22.04-16.25-39.24V810.05z"/>
	</g>
	<g>
		<path class="st0" d="M4095.06,859.23v109.44h-53.02V866.64c0-9.85-2.42-17.07-7.35-21.57c-4.99-4.56-12.73-6.81-23.38-6.81
			c-11.2,0-20.09,3.38-26.68,10.1c-6.59,6.75-9.93,16.05-9.93,27.94v92.37h-52.97V846.88c0-7.16-0.16-13.69-0.55-19.65
			c-0.33-5.93-0.88-11.61-1.59-17.04h48.03c0.11,1.32,0.44,3.43,0.88,6.34c0.82,7.55,1.26,13.23,1.26,17.07
			c5.43-8.45,13.67-15.07,24.64-19.79c10.98-4.72,23.38-7.11,37.1-7.11c20.69,0,36.45,4.5,47.31,13.45
			C4089.63,829.1,4095.06,842.14,4095.06,859.23z"/>
	</g>
</g>
</svg>
